<mxfile host="Electron" modified="2023-12-30T00:36:06.209Z" agent="Mozilla/5.0 (Windows NT 10.0; Win64; x64) AppleWebKit/537.36 (KHTML, like Gecko) draw.io/22.1.16 Chrome/120.0.6099.109 Electron/28.1.0 Safari/537.36" etag="NkJbBppgdTVDOQ7LtFjK" version="22.1.16" type="device">
  <diagram id="_J6QyDtCyrCejgibEiPi" name="Page-1">
    <mxGraphModel dx="920" dy="1449" grid="1" gridSize="11" guides="1" tooltips="1" connect="1" arrows="1" fold="1" page="1" pageScale="1" pageWidth="1100" pageHeight="850" background="#ffffff" math="0" shadow="0">
      <root>
        <mxCell id="0" />
        <mxCell id="1" parent="0" />
        <mxCell id="0CBs-_K-dKTUyLUtf2J0-12" value="2.0" style="swimlane;childLayout=stackLayout;horizontal=1;startSize=30;horizontalStack=0;rounded=1;fontSize=16;fontStyle=1;strokeWidth=2;resizeParent=0;resizeLast=1;shadow=0;dashed=0;align=center;" parent="1" vertex="1">
          <mxGeometry x="495" y="187" width="165" height="90" as="geometry" />
        </mxCell>
        <mxCell id="0CBs-_K-dKTUyLUtf2J0-13" value="loginÂ " style="align=center;strokeColor=none;fillColor=none;spacingLeft=4;fontSize=16;verticalAlign=top;resizable=0;rotatable=0;part=1;fontStyle=1" parent="0CBs-_K-dKTUyLUtf2J0-12" vertex="1">
          <mxGeometry y="30" width="165" height="60" as="geometry" />
        </mxCell>
        <mxCell id="0CBs-_K-dKTUyLUtf2J0-33" value="&lt;br style=&quot;font-size: 16px;&quot;&gt;&lt;br style=&quot;font-size: 16px;&quot;&gt;" style="edgeStyle=orthogonalEdgeStyle;rounded=0;orthogonalLoop=1;jettySize=auto;html=1;fontSize=16;fontStyle=1" parent="1" source="0CBs-_K-dKTUyLUtf2J0-20" edge="1">
          <mxGeometry relative="1" as="geometry">
            <Array as="points">
              <mxPoint x="374" y="242" />
              <mxPoint x="374" y="242" />
            </Array>
            <mxPoint x="484" y="242" as="targetPoint" />
          </mxGeometry>
        </mxCell>
        <mxCell id="0CBs-_K-dKTUyLUtf2J0-60" value="user info" style="edgeLabel;html=1;align=center;verticalAlign=middle;resizable=0;points=[];fontSize=16;fontStyle=1" parent="0CBs-_K-dKTUyLUtf2J0-33" vertex="1" connectable="0">
          <mxGeometry x="-0.6953" y="-1" relative="1" as="geometry">
            <mxPoint x="41" y="-1" as="offset" />
          </mxGeometry>
        </mxCell>
        <mxCell id="ZKWgKy2jPu-fumhLEX5u-35" style="edgeStyle=orthogonalEdgeStyle;rounded=0;orthogonalLoop=1;jettySize=auto;html=1;exitX=0.5;exitY=1;exitDx=0;exitDy=0;fontSize=16;fontStyle=1;entryX=0.008;entryY=0.435;entryDx=0;entryDy=0;entryPerimeter=0;" parent="1" source="0CBs-_K-dKTUyLUtf2J0-20" target="ZKWgKy2jPu-fumhLEX5u-34" edge="1">
          <mxGeometry relative="1" as="geometry">
            <mxPoint x="319" y="561" as="targetPoint" />
            <Array as="points">
              <mxPoint x="122" y="264" />
              <mxPoint x="122" y="562" />
            </Array>
          </mxGeometry>
        </mxCell>
        <mxCell id="ZKWgKy2jPu-fumhLEX5u-36" value="new info&amp;nbsp;" style="edgeLabel;html=1;align=center;verticalAlign=middle;resizable=0;points=[];fontSize=16;fontStyle=1;rotation=0;" parent="ZKWgKy2jPu-fumhLEX5u-35" vertex="1" connectable="0">
          <mxGeometry x="0.1651" y="1" relative="1" as="geometry">
            <mxPoint x="72" y="-7" as="offset" />
          </mxGeometry>
        </mxCell>
        <mxCell id="ZKWgKy2jPu-fumhLEX5u-60" style="edgeStyle=orthogonalEdgeStyle;rounded=0;orthogonalLoop=1;jettySize=auto;html=1;entryX=0;entryY=0.25;entryDx=0;entryDy=0;fontSize=16;fontStyle=1;exitX=0.5;exitY=0;exitDx=0;exitDy=0;" parent="1" source="0CBs-_K-dKTUyLUtf2J0-20" target="ZKWgKy2jPu-fumhLEX5u-2" edge="1">
          <mxGeometry relative="1" as="geometry">
            <mxPoint x="291" y="242" as="sourcePoint" />
            <Array as="points">
              <mxPoint x="114" y="132" />
              <mxPoint x="264" y="132" />
            </Array>
          </mxGeometry>
        </mxCell>
        <mxCell id="ZKWgKy2jPu-fumhLEX5u-70" style="edgeStyle=orthogonalEdgeStyle;rounded=0;orthogonalLoop=1;jettySize=auto;html=1;entryX=0;entryY=0.75;entryDx=0;entryDy=0;fontSize=16;fontStyle=1;exitX=0.091;exitY=1.05;exitDx=0;exitDy=0;exitPerimeter=0;" parent="1" source="0CBs-_K-dKTUyLUtf2J0-20" target="ZKWgKy2jPu-fumhLEX5u-68" edge="1">
          <mxGeometry relative="1" as="geometry">
            <Array as="points">
              <mxPoint x="73" y="816" />
            </Array>
          </mxGeometry>
        </mxCell>
        <mxCell id="ZKWgKy2jPu-fumhLEX5u-73" value="detect media" style="edgeLabel;html=1;align=center;verticalAlign=middle;resizable=0;points=[];fontSize=16;fontStyle=1" parent="ZKWgKy2jPu-fumhLEX5u-70" vertex="1" connectable="0">
          <mxGeometry x="0.5371" y="1" relative="1" as="geometry">
            <mxPoint x="41" as="offset" />
          </mxGeometry>
        </mxCell>
        <mxCell id="0CBs-_K-dKTUyLUtf2J0-20" value="&lt;font style=&quot;font-size: 16px;&quot;&gt;User&lt;/font&gt;" style="whiteSpace=wrap;html=1;align=center;strokeColor=#6c8ebf;fillColor=#dae8fc;fontSize=16;fontStyle=1" parent="1" vertex="1">
          <mxGeometry x="64" y="220" width="100" height="44" as="geometry" />
        </mxCell>
        <mxCell id="0CBs-_K-dKTUyLUtf2J0-61" value="7.0" style="swimlane;childLayout=stackLayout;horizontal=1;startSize=30;horizontalStack=0;rounded=1;fontSize=16;fontStyle=1;strokeWidth=2;resizeParent=0;resizeLast=1;shadow=0;dashed=0;align=center;" parent="1" vertex="1">
          <mxGeometry x="508.75" y="350" width="143" height="90" as="geometry" />
        </mxCell>
        <mxCell id="0CBs-_K-dKTUyLUtf2J0-85" value="Subscripe" style="text;html=1;align=center;verticalAlign=middle;resizable=0;points=[];autosize=1;strokeColor=none;fillColor=none;strokeWidth=6;perimeterSpacing=3;fontSize=16;fontStyle=1" parent="0CBs-_K-dKTUyLUtf2J0-61" vertex="1">
          <mxGeometry y="30" width="143" height="60" as="geometry" />
        </mxCell>
        <mxCell id="ZKWgKy2jPu-fumhLEX5u-27" style="edgeStyle=orthogonalEdgeStyle;rounded=0;orthogonalLoop=1;jettySize=auto;html=1;entryX=0.5;entryY=0;entryDx=0;entryDy=0;exitX=0.5;exitY=1;exitDx=0;exitDy=0;fontSize=16;fontStyle=1" parent="1" source="0CBs-_K-dKTUyLUtf2J0-13" target="0CBs-_K-dKTUyLUtf2J0-61" edge="1">
          <mxGeometry relative="1" as="geometry">
            <Array as="points" />
          </mxGeometry>
        </mxCell>
        <mxCell id="ZKWgKy2jPu-fumhLEX5u-46" value="user info" style="edgeLabel;html=1;align=center;verticalAlign=middle;resizable=0;points=[];fontSize=16;fontStyle=1" parent="ZKWgKy2jPu-fumhLEX5u-27" vertex="1" connectable="0">
          <mxGeometry x="-0.3989" y="-1" relative="1" as="geometry">
            <mxPoint as="offset" />
          </mxGeometry>
        </mxCell>
        <mxCell id="ZKWgKy2jPu-fumhLEX5u-43" style="edgeStyle=orthogonalEdgeStyle;rounded=0;orthogonalLoop=1;jettySize=auto;html=1;entryX=1;entryY=0.25;entryDx=0;entryDy=0;fontSize=16;fontStyle=1;strokeWidth=2;fillColor=#1ba1e2;strokeColor=#006EAF;exitX=0.454;exitY=0.015;exitDx=0;exitDy=0;exitPerimeter=0;" parent="1" source="djoCQU5wKfSwEfKa916S-10" target="0CBs-_K-dKTUyLUtf2J0-13" edge="1">
          <mxGeometry relative="1" as="geometry">
            <mxPoint x="1342" y="297" as="sourcePoint" />
            <Array as="points">
              <mxPoint x="1110" y="232" />
            </Array>
          </mxGeometry>
        </mxCell>
        <mxCell id="ZKWgKy2jPu-fumhLEX5u-44" value="user info" style="edgeLabel;html=1;align=center;verticalAlign=middle;resizable=0;points=[];fontSize=16;fontStyle=1" parent="ZKWgKy2jPu-fumhLEX5u-43" vertex="1" connectable="0">
          <mxGeometry x="0.0759" relative="1" as="geometry">
            <mxPoint x="-167" as="offset" />
          </mxGeometry>
        </mxCell>
        <mxCell id="ZKWgKy2jPu-fumhLEX5u-55" style="edgeStyle=orthogonalEdgeStyle;rounded=0;orthogonalLoop=1;jettySize=auto;html=1;fontSize=16;fontStyle=1;strokeWidth=2;fillColor=#1ba1e2;strokeColor=#006EAF;entryX=1;entryY=0.25;entryDx=0;entryDy=0;exitX=1;exitY=0.75;exitDx=0;exitDy=0;" parent="1" source="0CBs-_K-dKTUyLUtf2J0-13" target="ZKWgKy2jPu-fumhLEX5u-51" edge="1">
          <mxGeometry relative="1" as="geometry">
            <mxPoint x="572" y="682" as="targetPoint" />
            <Array as="points">
              <mxPoint x="814" y="262" />
              <mxPoint x="814" y="639" />
            </Array>
          </mxGeometry>
        </mxCell>
        <mxCell id="ZKWgKy2jPu-fumhLEX5u-56" value="user id" style="edgeLabel;html=1;align=center;verticalAlign=middle;resizable=0;points=[];fontSize=16;fontStyle=1" parent="ZKWgKy2jPu-fumhLEX5u-55" vertex="1" connectable="0">
          <mxGeometry x="-0.0161" y="-4" relative="1" as="geometry">
            <mxPoint x="-260" y="158" as="offset" />
          </mxGeometry>
        </mxCell>
        <mxCell id="ZKWgKy2jPu-fumhLEX5u-96" style="edgeStyle=orthogonalEdgeStyle;rounded=0;orthogonalLoop=1;jettySize=auto;html=1;fontSize=16;entryX=1.008;entryY=0.229;entryDx=0;entryDy=0;entryPerimeter=0;fontStyle=1;strokeWidth=2;fillColor=#1ba1e2;strokeColor=#006EAF;" parent="1" target="ZKWgKy2jPu-fumhLEX5u-89" edge="1">
          <mxGeometry relative="1" as="geometry">
            <mxPoint x="1144" y="297" as="sourcePoint" />
            <Array as="points">
              <mxPoint x="1144" y="385" />
              <mxPoint x="847" y="385" />
              <mxPoint x="847" y="922" />
            </Array>
          </mxGeometry>
        </mxCell>
        <mxCell id="ZKWgKy2jPu-fumhLEX5u-97" value="all users info&amp;nbsp;" style="edgeLabel;html=1;align=center;verticalAlign=middle;resizable=0;points=[];fontSize=16;fontStyle=1" parent="ZKWgKy2jPu-fumhLEX5u-96" vertex="1" connectable="0">
          <mxGeometry x="0.1533" relative="1" as="geometry">
            <mxPoint y="318" as="offset" />
          </mxGeometry>
        </mxCell>
        <mxCell id="djoCQU5wKfSwEfKa916S-10" value="&lt;font style=&quot;font-size: 16px;&quot;&gt;D1&amp;nbsp; &amp;nbsp; user database&lt;/font&gt;" style="html=1;dashed=0;whitespace=wrap;shape=mxgraph.dfd.dataStoreID;align=left;spacingLeft=3;points=[[0,0],[0.5,0],[1,0],[0,0.5],[1,0.5],[0,1],[0.5,1],[1,1]];fontSize=16;fontStyle=1" parent="1" vertex="1">
          <mxGeometry x="1045" y="264" width="143" height="30" as="geometry" />
        </mxCell>
        <mxCell id="ZKWgKy2jPu-fumhLEX5u-1" value="1.0" style="swimlane;childLayout=stackLayout;horizontal=1;startSize=30;horizontalStack=0;rounded=1;fontSize=16;fontStyle=1;strokeWidth=2;resizeParent=0;resizeLast=1;shadow=0;dashed=0;align=center;" parent="1" vertex="1">
          <mxGeometry x="500.5" y="88" width="159.5" height="90" as="geometry" />
        </mxCell>
        <mxCell id="ZKWgKy2jPu-fumhLEX5u-2" value="signup" style="align=center;strokeColor=none;fillColor=none;spacingLeft=4;fontSize=16;verticalAlign=top;resizable=0;rotatable=0;part=1;fontStyle=1" parent="ZKWgKy2jPu-fumhLEX5u-1" vertex="1">
          <mxGeometry y="30" width="159.5" height="60" as="geometry" />
        </mxCell>
        <mxCell id="ZKWgKy2jPu-fumhLEX5u-6" style="edgeStyle=orthogonalEdgeStyle;rounded=0;orthogonalLoop=1;jettySize=auto;html=1;entryX=0.634;entryY=-0.043;entryDx=0;entryDy=0;entryPerimeter=0;fontSize=16;fontStyle=1;strokeWidth=2;fillColor=#1ba1e2;strokeColor=#006EAF;" parent="1" source="ZKWgKy2jPu-fumhLEX5u-2" target="djoCQU5wKfSwEfKa916S-10" edge="1">
          <mxGeometry relative="1" as="geometry" />
        </mxCell>
        <mxCell id="ZKWgKy2jPu-fumhLEX5u-7" value="user info" style="edgeLabel;html=1;align=center;verticalAlign=middle;resizable=0;points=[];fontSize=16;fontStyle=1" parent="ZKWgKy2jPu-fumhLEX5u-6" vertex="1" connectable="0">
          <mxGeometry x="-0.6375" relative="1" as="geometry">
            <mxPoint x="-64" as="offset" />
          </mxGeometry>
        </mxCell>
        <mxCell id="ZKWgKy2jPu-fumhLEX5u-11" style="edgeStyle=orthogonalEdgeStyle;rounded=0;orthogonalLoop=1;jettySize=auto;html=1;entryX=1;entryY=0.75;entryDx=0;entryDy=0;exitX=-0.002;exitY=0.632;exitDx=0;exitDy=0;exitPerimeter=0;fontSize=16;fontStyle=1" parent="1" source="0CBs-_K-dKTUyLUtf2J0-13" target="0CBs-_K-dKTUyLUtf2J0-20" edge="1">
          <mxGeometry relative="1" as="geometry" />
        </mxCell>
        <mxCell id="ZKWgKy2jPu-fumhLEX5u-12" value="Authentication status" style="edgeLabel;html=1;align=center;verticalAlign=middle;resizable=0;points=[];fontSize=16;fontStyle=1" parent="ZKWgKy2jPu-fumhLEX5u-11" vertex="1" connectable="0">
          <mxGeometry x="-0.1857" y="2" relative="1" as="geometry">
            <mxPoint as="offset" />
          </mxGeometry>
        </mxCell>
        <mxCell id="ZKWgKy2jPu-fumhLEX5u-82" style="edgeStyle=orthogonalEdgeStyle;rounded=0;orthogonalLoop=1;jettySize=auto;html=1;fontSize=16;fontStyle=1;fillColor=#fff2cc;gradientColor=#ffd966;strokeColor=#d6b656;strokeWidth=2;" parent="1" source="ZKWgKy2jPu-fumhLEX5u-13" target="ZKWgKy2jPu-fumhLEX5u-78" edge="1">
          <mxGeometry relative="1" as="geometry">
            <Array as="points">
              <mxPoint x="1117" y="1068" />
            </Array>
          </mxGeometry>
        </mxCell>
        <mxCell id="ZKWgKy2jPu-fumhLEX5u-83" value="admin info" style="edgeLabel;html=1;align=center;verticalAlign=middle;resizable=0;points=[];fontSize=16;fontStyle=1" parent="ZKWgKy2jPu-fumhLEX5u-82" vertex="1" connectable="0">
          <mxGeometry x="0.4025" y="4" relative="1" as="geometry">
            <mxPoint x="-191" y="-4" as="offset" />
          </mxGeometry>
        </mxCell>
        <mxCell id="ZKWgKy2jPu-fumhLEX5u-13" value="&lt;font style=&quot;font-size: 16px;&quot;&gt;D2&amp;nbsp; &amp;nbsp; admins database&lt;/font&gt;" style="html=1;dashed=0;whitespace=wrap;shape=mxgraph.dfd.dataStoreID;align=left;spacingLeft=3;points=[[0,0],[0.5,0],[1,0],[0,0.5],[1,0.5],[0,1],[0.5,1],[1,1]];fontSize=16;fontStyle=1" parent="1" vertex="1">
          <mxGeometry x="1045" y="555" width="143" height="30" as="geometry" />
        </mxCell>
        <mxCell id="ZKWgKy2jPu-fumhLEX5u-94" style="edgeStyle=orthogonalEdgeStyle;rounded=0;orthogonalLoop=1;jettySize=auto;html=1;fontSize=16;fontStyle=1;strokeWidth=2;fillColor=#e51400;strokeColor=#B20000;entryX=0.991;entryY=0.424;entryDx=0;entryDy=0;entryPerimeter=0;exitX=0.1;exitY=1.025;exitDx=0;exitDy=0;exitPerimeter=0;" parent="1" source="ZKWgKy2jPu-fumhLEX5u-14" target="ZKWgKy2jPu-fumhLEX5u-89" edge="1">
          <mxGeometry relative="1" as="geometry">
            <mxPoint x="572" y="925" as="targetPoint" />
            <Array as="points">
              <mxPoint x="1059" y="462" />
              <mxPoint x="902" y="462" />
              <mxPoint x="902" y="935" />
            </Array>
          </mxGeometry>
        </mxCell>
        <mxCell id="ZKWgKy2jPu-fumhLEX5u-95" value="all media info&amp;nbsp;" style="edgeLabel;html=1;align=center;verticalAlign=middle;resizable=0;points=[];fontSize=16;fontStyle=1" parent="ZKWgKy2jPu-fumhLEX5u-94" vertex="1" connectable="0">
          <mxGeometry x="-0.3173" relative="1" as="geometry">
            <mxPoint x="-198" y="353" as="offset" />
          </mxGeometry>
        </mxCell>
        <mxCell id="ZKWgKy2jPu-fumhLEX5u-14" value="&lt;font style=&quot;font-size: 16px;&quot;&gt;D3&amp;nbsp; &amp;nbsp; media_data database&lt;/font&gt;" style="html=1;dashed=0;whitespace=wrap;shape=mxgraph.dfd.dataStoreID;align=left;spacingLeft=3;points=[[0,0],[0.5,0],[1,0],[0,0.5],[1,0.5],[0,1],[0.5,1],[1,1]];fontSize=16;fontStyle=1" parent="1" vertex="1">
          <mxGeometry x="1045" y="410" width="143" height="30" as="geometry" />
        </mxCell>
        <mxCell id="ZKWgKy2jPu-fumhLEX5u-28" style="edgeStyle=orthogonalEdgeStyle;rounded=0;orthogonalLoop=1;jettySize=auto;html=1;fontSize=16;fontStyle=1;fillColor=#1ba1e2;strokeColor=#006EAF;strokeWidth=2;" parent="1" target="djoCQU5wKfSwEfKa916S-10" edge="1">
          <mxGeometry relative="1" as="geometry">
            <mxPoint x="652" y="396" as="sourcePoint" />
            <Array as="points">
              <mxPoint x="652" y="396" />
              <mxPoint x="649" y="396" />
              <mxPoint x="649" y="395" />
              <mxPoint x="748" y="395" />
              <mxPoint x="748" y="279" />
            </Array>
          </mxGeometry>
        </mxCell>
        <mxCell id="ZKWgKy2jPu-fumhLEX5u-29" value="&lt;font style=&quot;font-size: 16px;&quot;&gt;plantype&lt;/font&gt;" style="edgeLabel;html=1;align=center;verticalAlign=middle;resizable=0;points=[];fontSize=16;fontStyle=1" parent="ZKWgKy2jPu-fumhLEX5u-28" vertex="1" connectable="0">
          <mxGeometry x="-0.3995" y="4" relative="1" as="geometry">
            <mxPoint x="-40" y="53" as="offset" />
          </mxGeometry>
        </mxCell>
        <mxCell id="ZKWgKy2jPu-fumhLEX5u-30" style="edgeStyle=orthogonalEdgeStyle;rounded=0;orthogonalLoop=1;jettySize=auto;html=1;entryX=0.031;entryY=0.491;entryDx=0;entryDy=0;entryPerimeter=0;fontSize=16;fontStyle=1;exitX=0.645;exitY=0.969;exitDx=0;exitDy=0;exitPerimeter=0;" parent="1" source="0CBs-_K-dKTUyLUtf2J0-20" target="0CBs-_K-dKTUyLUtf2J0-85" edge="1">
          <mxGeometry relative="1" as="geometry">
            <Array as="points">
              <mxPoint x="129" y="407" />
              <mxPoint x="473" y="407" />
              <mxPoint x="473" y="409" />
            </Array>
          </mxGeometry>
        </mxCell>
        <mxCell id="ZKWgKy2jPu-fumhLEX5u-31" value="subscription details" style="edgeLabel;html=1;align=center;verticalAlign=middle;resizable=0;points=[];fontSize=16;fontStyle=1" parent="ZKWgKy2jPu-fumhLEX5u-30" vertex="1" connectable="0">
          <mxGeometry x="0.3958" y="-2" relative="1" as="geometry">
            <mxPoint as="offset" />
          </mxGeometry>
        </mxCell>
        <mxCell id="ZKWgKy2jPu-fumhLEX5u-33" value="5.0" style="swimlane;childLayout=stackLayout;horizontal=1;startSize=30;horizontalStack=0;rounded=1;fontSize=16;fontStyle=1;strokeWidth=2;resizeParent=0;resizeLast=1;shadow=0;dashed=0;align=center;" parent="1" vertex="1">
          <mxGeometry x="385" y="495" width="110" height="90" as="geometry" />
        </mxCell>
        <mxCell id="ZKWgKy2jPu-fumhLEX5u-34" value="edit profile" style="text;html=1;align=center;verticalAlign=middle;resizable=0;points=[];autosize=1;strokeColor=none;fillColor=none;strokeWidth=6;perimeterSpacing=3;fontSize=16;fontStyle=1" parent="ZKWgKy2jPu-fumhLEX5u-33" vertex="1">
          <mxGeometry y="30" width="110" height="60" as="geometry" />
        </mxCell>
        <mxCell id="ZKWgKy2jPu-fumhLEX5u-37" value="6.0" style="swimlane;childLayout=stackLayout;horizontal=1;startSize=30;horizontalStack=0;rounded=1;fontSize=16;fontStyle=1;strokeWidth=2;resizeParent=0;resizeLast=1;shadow=0;dashed=0;align=center;" parent="1" vertex="1">
          <mxGeometry x="616" y="495" width="110" height="90" as="geometry" />
        </mxCell>
        <mxCell id="ZKWgKy2jPu-fumhLEX5u-38" value="confirm" style="text;html=1;align=center;verticalAlign=middle;resizable=0;points=[];autosize=1;strokeColor=none;fillColor=none;strokeWidth=6;perimeterSpacing=3;fontSize=16;fontStyle=1" parent="ZKWgKy2jPu-fumhLEX5u-37" vertex="1">
          <mxGeometry y="30" width="110" height="60" as="geometry" />
        </mxCell>
        <mxCell id="ZKWgKy2jPu-fumhLEX5u-39" style="edgeStyle=orthogonalEdgeStyle;rounded=0;orthogonalLoop=1;jettySize=auto;html=1;fontSize=16;fontStyle=1;exitX=0.975;exitY=0.329;exitDx=0;exitDy=0;exitPerimeter=0;entryX=0.01;entryY=0.547;entryDx=0;entryDy=0;entryPerimeter=0;" parent="1" source="ZKWgKy2jPu-fumhLEX5u-34" target="ZKWgKy2jPu-fumhLEX5u-38" edge="1">
          <mxGeometry relative="1" as="geometry">
            <Array as="points">
              <mxPoint x="495" y="558" />
            </Array>
          </mxGeometry>
        </mxCell>
        <mxCell id="ZKWgKy2jPu-fumhLEX5u-48" value="edited info" style="edgeLabel;html=1;align=center;verticalAlign=middle;resizable=0;points=[];fontSize=16;fontStyle=1" parent="ZKWgKy2jPu-fumhLEX5u-39" vertex="1" connectable="0">
          <mxGeometry x="-0.1912" relative="1" as="geometry">
            <mxPoint x="9" y="-3" as="offset" />
          </mxGeometry>
        </mxCell>
        <mxCell id="ZKWgKy2jPu-fumhLEX5u-40" style="edgeStyle=orthogonalEdgeStyle;rounded=0;orthogonalLoop=1;jettySize=auto;html=1;fontSize=16;fontStyle=1;strokeWidth=2;fillColor=#1ba1e2;strokeColor=#006EAF;entryX=0.5;entryY=0;entryDx=0;entryDy=0;exitX=1;exitY=0.5;exitDx=0;exitDy=0;" parent="1" source="0CBs-_K-dKTUyLUtf2J0-13" target="ZKWgKy2jPu-fumhLEX5u-33" edge="1">
          <mxGeometry relative="1" as="geometry">
            <mxPoint x="1232" y="330" as="sourcePoint" />
            <mxPoint x="492" y="558" as="targetPoint" />
            <Array as="points">
              <mxPoint x="803" y="247" />
              <mxPoint x="803" y="473" />
              <mxPoint x="440" y="473" />
            </Array>
          </mxGeometry>
        </mxCell>
        <mxCell id="ZKWgKy2jPu-fumhLEX5u-42" value="user info" style="edgeLabel;html=1;align=center;verticalAlign=middle;resizable=0;points=[];fontSize=16;fontStyle=1" parent="ZKWgKy2jPu-fumhLEX5u-40" vertex="1" connectable="0">
          <mxGeometry x="0.2249" y="3" relative="1" as="geometry">
            <mxPoint x="-201" y="-3" as="offset" />
          </mxGeometry>
        </mxCell>
        <mxCell id="ZKWgKy2jPu-fumhLEX5u-58" style="edgeStyle=orthogonalEdgeStyle;rounded=0;orthogonalLoop=1;jettySize=auto;html=1;entryX=0.25;entryY=1;entryDx=0;entryDy=0;fontSize=16;fontStyle=1;exitX=0.015;exitY=0.243;exitDx=0;exitDy=0;exitPerimeter=0;" parent="1" source="ZKWgKy2jPu-fumhLEX5u-52" edge="1">
          <mxGeometry relative="1" as="geometry">
            <mxPoint x="406" y="661.0000000000002" as="sourcePoint" />
            <mxPoint x="109.99999999999989" y="264" as="targetPoint" />
          </mxGeometry>
        </mxCell>
        <mxCell id="ZKWgKy2jPu-fumhLEX5u-59" value="&lt;font style=&quot;font-size: 16px;&quot;&gt;user history&lt;/font&gt;" style="edgeLabel;html=1;align=center;verticalAlign=middle;resizable=0;points=[];fontSize=16;fontStyle=1" parent="ZKWgKy2jPu-fumhLEX5u-58" vertex="1" connectable="0">
          <mxGeometry x="-0.5201" y="-2" relative="1" as="geometry">
            <mxPoint as="offset" />
          </mxGeometry>
        </mxCell>
        <mxCell id="ZKWgKy2jPu-fumhLEX5u-51" value="4.0" style="swimlane;childLayout=stackLayout;horizontal=1;startSize=30;horizontalStack=0;rounded=1;fontSize=16;fontStyle=1;strokeWidth=2;resizeParent=0;resizeLast=1;shadow=0;dashed=0;align=center;" parent="1" vertex="1">
          <mxGeometry x="385" y="616" width="116" height="90" as="geometry" />
        </mxCell>
        <mxCell id="ZKWgKy2jPu-fumhLEX5u-52" value="show history" style="text;html=1;align=center;verticalAlign=middle;resizable=0;points=[];autosize=1;strokeColor=none;fillColor=none;strokeWidth=6;perimeterSpacing=3;fontSize=16;fontStyle=1" parent="ZKWgKy2jPu-fumhLEX5u-51" vertex="1">
          <mxGeometry y="30" width="116" height="60" as="geometry" />
        </mxCell>
        <mxCell id="ZKWgKy2jPu-fumhLEX5u-53" style="edgeStyle=orthogonalEdgeStyle;rounded=0;orthogonalLoop=1;jettySize=auto;html=1;fontSize=16;fontStyle=1;strokeWidth=2;fillColor=#e51400;strokeColor=#B20000;entryX=1.015;entryY=0.464;entryDx=0;entryDy=0;entryPerimeter=0;" parent="1" source="ZKWgKy2jPu-fumhLEX5u-14" target="ZKWgKy2jPu-fumhLEX5u-52" edge="1">
          <mxGeometry relative="1" as="geometry">
            <mxPoint x="605" y="671" as="targetPoint" />
            <Array as="points">
              <mxPoint x="880" y="425" />
              <mxPoint x="880" y="674" />
            </Array>
          </mxGeometry>
        </mxCell>
        <mxCell id="ZKWgKy2jPu-fumhLEX5u-57" value="&lt;font style=&quot;font-size: 16px;&quot;&gt;data of the user&lt;/font&gt;" style="edgeLabel;html=1;align=center;verticalAlign=middle;resizable=0;points=[];fontSize=16;fontStyle=1" parent="ZKWgKy2jPu-fumhLEX5u-53" vertex="1" connectable="0">
          <mxGeometry x="-0.5641" y="-1" relative="1" as="geometry">
            <mxPoint x="-274" y="244" as="offset" />
          </mxGeometry>
        </mxCell>
        <mxCell id="ZKWgKy2jPu-fumhLEX5u-61" value="10.0" style="swimlane;childLayout=stackLayout;horizontal=1;startSize=30;horizontalStack=0;rounded=1;fontSize=16;fontStyle=1;strokeWidth=2;resizeParent=0;resizeLast=1;shadow=0;dashed=0;align=center;" parent="1" vertex="1">
          <mxGeometry x="803" y="44" width="154" height="90" as="geometry" />
        </mxCell>
        <mxCell id="ZKWgKy2jPu-fumhLEX5u-62" value="logout" style="align=center;strokeColor=none;fillColor=none;spacingLeft=4;fontSize=16;verticalAlign=top;resizable=0;rotatable=0;part=1;fontStyle=1" parent="ZKWgKy2jPu-fumhLEX5u-61" vertex="1">
          <mxGeometry y="30" width="154" height="60" as="geometry" />
        </mxCell>
        <mxCell id="ZKWgKy2jPu-fumhLEX5u-63" style="edgeStyle=orthogonalEdgeStyle;rounded=0;orthogonalLoop=1;jettySize=auto;html=1;fontSize=16;fontStyle=1;entryX=0.25;entryY=0;entryDx=0;entryDy=0;exitX=0.599;exitY=0.008;exitDx=0;exitDy=0;exitPerimeter=0;" parent="1" source="ZKWgKy2jPu-fumhLEX5u-61" target="0CBs-_K-dKTUyLUtf2J0-20" edge="1">
          <mxGeometry relative="1" as="geometry">
            <Array as="points">
              <mxPoint x="895" y="22" />
              <mxPoint x="89" y="22" />
            </Array>
          </mxGeometry>
        </mxCell>
        <mxCell id="ZKWgKy2jPu-fumhLEX5u-64" value="Session Termination" style="edgeLabel;html=1;align=center;verticalAlign=middle;resizable=0;points=[];fontSize=16;fontStyle=1" parent="ZKWgKy2jPu-fumhLEX5u-63" vertex="1" connectable="0">
          <mxGeometry x="-0.7897" y="-1" relative="1" as="geometry">
            <mxPoint x="-371" as="offset" />
          </mxGeometry>
        </mxCell>
        <mxCell id="ZKWgKy2jPu-fumhLEX5u-66" style="edgeStyle=orthogonalEdgeStyle;rounded=0;orthogonalLoop=1;jettySize=auto;html=1;fontSize=16;fontStyle=1;entryX=0.75;entryY=0;entryDx=0;entryDy=0;exitX=0.153;exitY=-0.067;exitDx=0;exitDy=0;exitPerimeter=0;" parent="1" source="0CBs-_K-dKTUyLUtf2J0-20" target="ZKWgKy2jPu-fumhLEX5u-61" edge="1">
          <mxGeometry relative="1" as="geometry">
            <mxPoint x="1022" y="94" as="targetPoint" />
            <Array as="points">
              <mxPoint x="79" y="-5" />
              <mxPoint x="919" y="-5" />
            </Array>
          </mxGeometry>
        </mxCell>
        <mxCell id="ZKWgKy2jPu-fumhLEX5u-67" value="logout button clicked" style="edgeLabel;html=1;align=center;verticalAlign=middle;resizable=0;points=[];fontSize=16;fontStyle=1" parent="ZKWgKy2jPu-fumhLEX5u-66" vertex="1" connectable="0">
          <mxGeometry x="0.2179" y="-1" relative="1" as="geometry">
            <mxPoint as="offset" />
          </mxGeometry>
        </mxCell>
        <mxCell id="ZKWgKy2jPu-fumhLEX5u-74" style="edgeStyle=orthogonalEdgeStyle;rounded=0;orthogonalLoop=1;jettySize=auto;html=1;fontSize=16;fontStyle=1;entryX=0.25;entryY=1;entryDx=0;entryDy=0;" parent="1" target="0CBs-_K-dKTUyLUtf2J0-20" edge="1">
          <mxGeometry relative="1" as="geometry">
            <mxPoint x="77" y="275" as="targetPoint" />
            <mxPoint x="561" y="781" as="sourcePoint" />
            <Array as="points">
              <mxPoint x="89" y="781" />
            </Array>
          </mxGeometry>
        </mxCell>
        <mxCell id="ZKWgKy2jPu-fumhLEX5u-76" value="&lt;font style=&quot;font-size: 16px;&quot;&gt;predicted label&lt;/font&gt;" style="edgeLabel;html=1;align=center;verticalAlign=middle;resizable=0;points=[];fontSize=16;fontStyle=1" parent="ZKWgKy2jPu-fumhLEX5u-74" vertex="1" connectable="0">
          <mxGeometry x="-0.7522" y="1" relative="1" as="geometry">
            <mxPoint as="offset" />
          </mxGeometry>
        </mxCell>
        <mxCell id="ZKWgKy2jPu-fumhLEX5u-68" value="3.0" style="swimlane;childLayout=stackLayout;horizontal=1;startSize=30;horizontalStack=0;rounded=1;fontSize=16;fontStyle=1;strokeWidth=2;resizeParent=0;resizeLast=1;shadow=0;dashed=0;align=center;" parent="1" vertex="1">
          <mxGeometry x="561" y="748" width="169" height="90" as="geometry" />
        </mxCell>
        <mxCell id="ZKWgKy2jPu-fumhLEX5u-69" value="&lt;div style=&quot;font-size: 16px;&quot;&gt;Detect Ai generated&lt;/div&gt;&lt;div style=&quot;font-size: 16px;&quot;&gt;media.&lt;/div&gt;" style="text;html=1;align=center;verticalAlign=middle;resizable=0;points=[];autosize=1;strokeColor=none;fillColor=none;strokeWidth=6;perimeterSpacing=3;fontSize=16;fontStyle=1" parent="ZKWgKy2jPu-fumhLEX5u-68" vertex="1">
          <mxGeometry y="30" width="169" height="60" as="geometry" />
        </mxCell>
        <mxCell id="ZKWgKy2jPu-fumhLEX5u-71" style="edgeStyle=orthogonalEdgeStyle;rounded=0;orthogonalLoop=1;jettySize=auto;html=1;fontSize=16;exitX=0.987;exitY=0.094;exitDx=0;exitDy=0;exitPerimeter=0;fontStyle=1;strokeWidth=2;fillColor=#e51400;strokeColor=#B20000;" parent="1" source="ZKWgKy2jPu-fumhLEX5u-69" edge="1">
          <mxGeometry relative="1" as="geometry">
            <mxPoint x="1133" y="443" as="targetPoint" />
            <Array as="points">
              <mxPoint x="935" y="781" />
              <mxPoint x="935" y="484" />
              <mxPoint x="1133" y="484" />
            </Array>
          </mxGeometry>
        </mxCell>
        <mxCell id="ZKWgKy2jPu-fumhLEX5u-72" value="new_media&amp;nbsp;" style="edgeLabel;html=1;align=center;verticalAlign=middle;resizable=0;points=[];fontSize=16;fontStyle=1" parent="ZKWgKy2jPu-fumhLEX5u-71" vertex="1" connectable="0">
          <mxGeometry x="-0.1244" y="-4" relative="1" as="geometry">
            <mxPoint x="-148" y="126" as="offset" />
          </mxGeometry>
        </mxCell>
        <mxCell id="ZKWgKy2jPu-fumhLEX5u-80" style="edgeStyle=orthogonalEdgeStyle;rounded=0;orthogonalLoop=1;jettySize=auto;html=1;fontSize=16;fontStyle=1;" parent="1" source="ZKWgKy2jPu-fumhLEX5u-77" edge="1">
          <mxGeometry relative="1" as="geometry">
            <mxPoint x="418" y="1056" as="targetPoint" />
            <Array as="points">
              <mxPoint x="99" y="1056" />
              <mxPoint x="316" y="1056" />
            </Array>
          </mxGeometry>
        </mxCell>
        <mxCell id="ZKWgKy2jPu-fumhLEX5u-81" value="admin info&amp;nbsp;" style="edgeLabel;html=1;align=center;verticalAlign=middle;resizable=0;points=[];fontSize=16;fontStyle=1" parent="ZKWgKy2jPu-fumhLEX5u-80" vertex="1" connectable="0">
          <mxGeometry x="-0.1464" y="1" relative="1" as="geometry">
            <mxPoint x="177" y="-2" as="offset" />
          </mxGeometry>
        </mxCell>
        <mxCell id="ZKWgKy2jPu-fumhLEX5u-90" style="edgeStyle=orthogonalEdgeStyle;rounded=0;orthogonalLoop=1;jettySize=auto;html=1;fontSize=16;fontStyle=1" parent="1" source="ZKWgKy2jPu-fumhLEX5u-77" target="ZKWgKy2jPu-fumhLEX5u-89" edge="1">
          <mxGeometry relative="1" as="geometry">
            <Array as="points">
              <mxPoint x="105" y="957" />
            </Array>
          </mxGeometry>
        </mxCell>
        <mxCell id="ZKWgKy2jPu-fumhLEX5u-91" value="request analytics reports" style="edgeLabel;html=1;align=center;verticalAlign=middle;resizable=0;points=[];fontSize=16;fontStyle=1" parent="ZKWgKy2jPu-fumhLEX5u-90" vertex="1" connectable="0">
          <mxGeometry x="-0.2169" y="1" relative="1" as="geometry">
            <mxPoint as="offset" />
          </mxGeometry>
        </mxCell>
        <mxCell id="ZKWgKy2jPu-fumhLEX5u-77" value="&lt;font style=&quot;font-size: 16px;&quot;&gt;Admin&lt;/font&gt;" style="whiteSpace=wrap;html=1;align=center;strokeColor=#6c8ebf;fillColor=#dae8fc;fontSize=16;fontStyle=1" parent="1" vertex="1">
          <mxGeometry x="55" y="850" width="100" height="44" as="geometry" />
        </mxCell>
        <mxCell id="ZKWgKy2jPu-fumhLEX5u-78" value="8.0" style="swimlane;childLayout=stackLayout;horizontal=1;startSize=30;horizontalStack=0;rounded=1;fontSize=16;fontStyle=1;strokeWidth=2;resizeParent=0;resizeLast=1;shadow=0;dashed=0;align=center;" parent="1" vertex="1">
          <mxGeometry x="420" y="1023" width="152" height="90" as="geometry" />
        </mxCell>
        <mxCell id="ZKWgKy2jPu-fumhLEX5u-79" value="&lt;div style=&quot;font-size: 16px;&quot;&gt;sign in&lt;/div&gt;" style="text;html=1;align=center;verticalAlign=middle;resizable=0;points=[];autosize=1;strokeColor=none;fillColor=none;strokeWidth=6;perimeterSpacing=3;fontSize=16;fontStyle=1" parent="ZKWgKy2jPu-fumhLEX5u-78" vertex="1">
          <mxGeometry y="30" width="152" height="60" as="geometry" />
        </mxCell>
        <mxCell id="ZKWgKy2jPu-fumhLEX5u-84" style="edgeStyle=orthogonalEdgeStyle;rounded=0;orthogonalLoop=1;jettySize=auto;html=1;fontSize=16;fontStyle=1;exitX=0;exitY=0.75;exitDx=0;exitDy=0;" parent="1" source="ZKWgKy2jPu-fumhLEX5u-78" edge="1">
          <mxGeometry relative="1" as="geometry">
            <mxPoint x="338" y="1083.0000000000005" as="sourcePoint" />
            <mxPoint x="88" y="894" as="targetPoint" />
            <Array as="points">
              <mxPoint x="420" y="1083" />
              <mxPoint x="88" y="1083" />
            </Array>
          </mxGeometry>
        </mxCell>
        <mxCell id="ZKWgKy2jPu-fumhLEX5u-86" value="Authentication status" style="edgeLabel;html=1;align=center;verticalAlign=middle;resizable=0;points=[];fontSize=16;fontStyle=1" parent="ZKWgKy2jPu-fumhLEX5u-84" vertex="1" connectable="0">
          <mxGeometry x="-0.4158" y="3" relative="1" as="geometry">
            <mxPoint as="offset" />
          </mxGeometry>
        </mxCell>
        <mxCell id="ZKWgKy2jPu-fumhLEX5u-88" value="9.0" style="swimlane;childLayout=stackLayout;horizontal=1;startSize=30;horizontalStack=0;rounded=1;fontSize=16;fontStyle=1;strokeWidth=2;resizeParent=0;resizeLast=1;shadow=0;dashed=0;align=center;" parent="1" vertex="1">
          <mxGeometry x="583" y="880" width="208" height="90" as="geometry" />
        </mxCell>
        <mxCell id="ZKWgKy2jPu-fumhLEX5u-89" value="&lt;div style=&quot;font-size: 16px;&quot;&gt;generate analytics reports&lt;/div&gt;" style="text;html=1;align=center;verticalAlign=middle;resizable=0;points=[];autosize=1;strokeColor=none;fillColor=none;strokeWidth=6;perimeterSpacing=3;fontSize=16;fontStyle=1" parent="ZKWgKy2jPu-fumhLEX5u-88" vertex="1">
          <mxGeometry y="30" width="208" height="60" as="geometry" />
        </mxCell>
        <mxCell id="ZKWgKy2jPu-fumhLEX5u-92" style="edgeStyle=orthogonalEdgeStyle;rounded=0;orthogonalLoop=1;jettySize=auto;html=1;exitX=-0.001;exitY=0.169;exitDx=0;exitDy=0;fontSize=16;fontStyle=1;exitPerimeter=0;" parent="1" source="ZKWgKy2jPu-fumhLEX5u-89" edge="1">
          <mxGeometry relative="1" as="geometry">
            <mxPoint x="132" y="891" as="targetPoint" />
            <Array as="points">
              <mxPoint x="132" y="918" />
            </Array>
          </mxGeometry>
        </mxCell>
        <mxCell id="ZKWgKy2jPu-fumhLEX5u-93" value="reports" style="edgeLabel;html=1;align=center;verticalAlign=middle;resizable=0;points=[];fontSize=16;fontStyle=1" parent="ZKWgKy2jPu-fumhLEX5u-92" vertex="1" connectable="0">
          <mxGeometry x="-0.1574" y="2" relative="1" as="geometry">
            <mxPoint as="offset" />
          </mxGeometry>
        </mxCell>
        <mxCell id="ZKWgKy2jPu-fumhLEX5u-49" style="edgeStyle=orthogonalEdgeStyle;rounded=0;orthogonalLoop=1;jettySize=auto;html=1;fontSize=16;fontStyle=1;strokeWidth=2;fillColor=#1ba1e2;strokeColor=#006EAF;exitX=1.012;exitY=0.408;exitDx=0;exitDy=0;exitPerimeter=0;entryX=0.308;entryY=1;entryDx=0;entryDy=0;entryPerimeter=0;" parent="1" source="ZKWgKy2jPu-fumhLEX5u-38" target="djoCQU5wKfSwEfKa916S-10" edge="1">
          <mxGeometry relative="1" as="geometry">
            <mxPoint x="1287" y="294" as="targetPoint" />
            <Array as="points">
              <mxPoint x="825" y="549" />
              <mxPoint x="825" y="341" />
              <mxPoint x="1089" y="341" />
            </Array>
          </mxGeometry>
        </mxCell>
        <mxCell id="ZKWgKy2jPu-fumhLEX5u-50" value="edited info" style="edgeLabel;html=1;align=center;verticalAlign=middle;resizable=0;points=[];fontSize=16;fontStyle=1" parent="ZKWgKy2jPu-fumhLEX5u-49" vertex="1" connectable="0">
          <mxGeometry x="-0.1099" y="3" relative="1" as="geometry">
            <mxPoint x="-30" y="190" as="offset" />
          </mxGeometry>
        </mxCell>
      </root>
    </mxGraphModel>
  </diagram>
</mxfile>
